<?xml version="1.0" encoding="utf-8"?>
<!-- Generator: Adobe Illustrator 16.0.0, SVG Export Plug-In . SVG Version: 6.00 Build 0)  -->
<!DOCTYPE svg PUBLIC "-//W3C//DTD SVG 1.1//EN" "http://www.w3.org/Graphics/SVG/1.1/DTD/svg11.dtd">
<svg version="1.1" id="Layer_1" xmlns="http://www.w3.org/2000/svg" xmlns:xlink="http://www.w3.org/1999/xlink" x="0px" y="0px"
	 width="283.46px" height="283.46px" viewBox="0 0 283.46 283.46" enable-background="new 0 0 283.46 283.46" xml:space="preserve">
<style type="text/css"><![CDATA[
  .cc-lead{fill: #CC0000;}
  .cc-base{fill: #689BC4;}
]]></style>
<path class="cc-base" d="M160.677,204.762c0,0,0.32-1.548,0.826-4.479c0.521-2.923,1.268-7.209,2.098-12.669c0.397-2.73,0.837-5.753,1.267-9.043
	c0.415-3.293,0.795-6.854,1.182-10.649c0.665-7.6,1.278-16.185,0.876-25.424c-0.161-4.61-0.587-9.389-1.502-14.173
	c-0.915-4.778-2.237-9.6-4.433-14.022c-4.409-8.926-12.199-17.291-22.778-21.36c-2.632-1-5.408-1.715-8.268-2.136
	c-2.864-0.396-5.798-0.414-8.736-0.153c-5.883,0.552-11.702,2.603-16.864,5.796c-2.589,1.59-4.996,3.486-7.283,5.524
	c-2.185,2.147-4.317,4.37-6.15,6.852c-1.886,2.438-3.49,5.087-5.031,7.756c-0.693,1.372-1.436,2.772-2.065,4.12
	c-0.63,1.441-1.351,2.903-1.9,4.328c-2.333,5.683-4.211,11.664-5.612,17.65c-1.449,5.991-2.477,12.045-3.159,18.076
	c-1.366,12.068-1.049,24.101,0.749,35.415c1.844,11.301,5.098,21.931,9.904,30.99c2.414,4.518,5.25,8.599,8.419,12.117l1.186,1.316
	l1.309,1.333c0.876,0.876,1.746,1.741,2.604,2.6c1.713,1.696,3.455,3.318,5.165,4.869c6.826,6.196,13.687,11.182,20.431,13.272
	c3.36,1.02,6.65,1.344,9.693,0.999c3.046-0.31,5.826-1.203,8.261-2.252c4.866-2.16,8.387-4.75,10.748-6.488
	c1.193-0.873,2.076-1.583,2.671-2.065c0.599-0.481,0.907-0.728,0.907-0.728l0.577,0.594c0,0-0.264,0.299-0.78,0.877
	c-0.515,0.576-1.281,1.435-2.337,2.508c-2.125,2.115-5.284,5.281-10.266,8.271c-2.491,1.485-5.509,2.844-9.07,3.604
	c-3.54,0.813-7.635,0.844-11.751-0.049c-4.131-0.891-8.261-2.583-12.223-4.856c-3.961-2.266-7.829-5.006-11.656-8.05
	c-1.89-1.548-3.782-3.142-5.678-4.834c-0.933-0.841-1.876-1.692-2.825-2.547l-1.415-1.309l-1.459-1.454
	c-3.895-3.908-7.273-8.51-10.144-13.518c-5.682-10.065-9.211-21.761-10.801-33.955c-1.612-12.205-1.45-24.966,0.506-37.633
	c1.921-12.687,5.974-25.171,11.959-36.736c0.728-1.476,1.53-2.797,2.291-4.203c0.837-1.46,1.71-2.79,2.554-4.183
	c1.812-2.699,3.688-5.347,5.827-7.779c4.155-4.954,9.059-9.26,14.53-12.592c2.769-1.594,5.602-3.09,8.613-4.151
	c2.987-1.079,6.059-1.93,9.189-2.428c3.132-0.471,6.298-0.593,9.451-0.475c3.148,0.17,6.255,0.723,9.288,1.507
	c12.159,3.26,22.37,11.827,27.876,22.211c2.856,5.25,4.391,10.77,5.263,16.065c0.88,5.309,1.203,10.437,1.26,15.325
	c-0.028,9.783-1.084,18.607-2.435,26.313c-0.661,3.856-1.407,7.438-2.188,10.724c-0.773,3.286-1.52,6.291-2.308,8.973
	c-1.503,5.389-2.931,9.541-3.93,12.362c-1.035,2.809-1.637,4.285-1.637,4.285L160.677,204.762z M162.352,93.796
	c0,0,0.894-0.533,2.681-1.335c1.773-0.813,4.426-1.913,7.895-2.875c1.731-0.458,3.667-0.902,5.785-1.208
	c2.117-0.289,4.419-0.424,6.847-0.339c4.842,0.207,10.253,1.455,15.326,4.489c5.094,2.977,9.816,7.577,13.904,13.183
	c4.201,5.626,7.993,12.054,11.237,19.159c3.181,7.111,5.637,14.895,7.022,23.007c0.381,2.026,0.634,4.074,0.908,6.128
	c0.204,2.059,0.394,4.128,0.521,6.2c0.19,4.159,0.177,8.331-0.028,12.49c-0.253,4.152-0.647,8.289-1.309,12.356
	c-0.563,4.084-1.436,8.092-2.329,12.039c-1.935,7.867-4.603,15.397-8.058,22.223c-1.801,3.37-3.574,6.685-5.629,9.725
	c-0.507,0.764-1.014,1.523-1.513,2.279c-0.542,0.726-1.084,1.45-1.612,2.168c-1.012,1.481-2.159,2.829-3.257,4.187
	c-4.595,5.437-9.162,10.316-13.771,14.369c-2.28,2.055-4.574,3.866-6.861,5.396c-2.287,1.528-4.538,2.829-6.776,3.688
	c-2.224,0.864-4.397,1.357-6.418,1.432c-2.02,0.063-3.862-0.342-5.46-0.939c-3.216-1.253-5.316-3.301-6.752-4.605
	c-0.725-0.666-1.28-1.193-1.695-1.523c-0.405-0.338-0.658-0.486-0.658-0.486l-0.32,0.451c0,0,0.183,0.147,0.507,0.527
	c0.331,0.362,0.781,0.964,1.394,1.745c1.252,1.513,3.12,3.944,6.589,5.89c1.725,0.957,3.892,1.675,6.313,1.857
	c2.421,0.19,5.045-0.134,7.67-0.914c2.632-0.768,5.284-1.942,7.875-3.455c2.603-1.492,5.206-3.251,7.746-5.271
	c5.088-4.012,10.161-8.895,14.995-14.411c1.218-1.418,2.478-2.836,3.61-4.385c0.569-0.77,1.147-1.548,1.724-2.325
	c0.535-0.809,1.07-1.622,1.612-2.441c2.181-3.262,4.095-6.787,5.847-10.457c3.413-7.375,5.988-15.385,7.677-23.675
	c1.641-8.303,2.182-16.909,1.894-25.416c-0.127-4.254-0.443-8.494-0.95-12.688c-0.472-4.194-1.056-8.36-1.822-12.455
	c-1.457-8.203-3.462-16.172-5.939-23.78c-2.547-7.554-5.756-14.798-10.026-20.897c-4.216-6.217-9.669-11.227-15.565-14.476
	c-5.946-3.2-12.251-4.33-17.627-4.074c-5.404,0.19-9.908,1.592-13.391,3.019c-3.497,1.446-6.021,3.003-7.674,4.125
	c-1.646,1.136-2.456,1.849-2.456,1.849L162.352,93.796z M94.557,263.68c0,0-0.975-0.137-2.8-0.542
	c-1.815-0.4-4.476-1.069-7.783-2.15c-3.307-1.083-7.269-2.564-11.639-4.619c-4.37-2.061-9.162-4.687-14.003-8.099
	c-4.834-3.413-9.725-7.593-14.257-12.589c-4.524-4.996-8.729-10.776-12.106-17.289c-3.409-6.488-6.069-13.63-7.892-21.104
	c-0.943-3.729-1.597-7.578-2.167-11.406c-0.239-1.97-0.545-3.969-0.739-5.922c-0.179-1.952-0.404-3.887-0.545-5.847
	c-0.566-7.85-0.602-15.717,0.229-23.319c0.816-7.597,2.399-14.925,4.912-21.581c2.393-6.712,5.879-12.645,9.897-17.706
	c2.076-2.477,4.247-4.774,6.59-6.751c1.126-1.04,2.347-1.932,3.498-2.868c1.231-0.83,2.382-1.743,3.62-2.475
	c4.852-3.075,9.714-5.332,14.183-6.994c4.455-1.678,8.5-2.833,11.871-3.644c1.678-0.429,3.194-0.763,4.521-1.036
	c1.319-0.297,2.452-0.513,3.374-0.681c1.844-0.347,2.829-0.533,2.829-0.533l-0.056-0.689c0,0-1.006,0.007-2.899,0.018
	c-0.942-0.011-2.111,0.024-3.479,0.116c-1.372,0.071-2.952,0.146-4.711,0.365c-3.54,0.325-7.818,0.992-12.666,2.229
	c-4.827,1.256-10.246,3.105-15.766,6.08c-1.401,0.702-2.73,1.601-4.148,2.426c-1.345,0.932-2.759,1.826-4.096,2.887
	c-2.706,2.078-5.274,4.524-7.74,7.204c-4.849,5.432-8.919,12.143-11.579,19.565c-1.39,3.698-2.357,7.575-3.163,11.508
	c-0.704,3.951-1.245,7.969-1.442,12.022c-0.485,8.092-0.187,16.283,0.718,24.365c0.211,2.022,0.51,4.053,0.763,6.076
	c0.271,2.016,0.63,3.954,0.94,5.932c0.731,4.028,1.541,7.99,2.652,11.87c2.161,7.755,5.193,15.147,8.979,21.821
	c3.772,6.686,8.314,12.624,13.247,17.603c4.922,4.996,10.15,9.095,15.259,12.388c5.116,3.301,10.119,5.777,14.651,7.691
	c4.532,1.91,8.613,3.237,12.012,4.158c6.804,1.852,10.843,2.21,10.843,2.21L94.557,263.68z M205.816,81.75
	c0,0,0.859,0.04,2.491,0.281c1.619,0.247,3.997,0.691,6.939,1.534c2.94,0.844,6.452,2.101,10.252,3.978
	c3.793,1.88,7.889,4.377,11.814,7.749c3.933,3.35,7.74,7.494,10.984,12.404c3.223,4.925,5.995,10.521,8.043,16.617
	c2.068,6.091,3.469,12.64,4.299,19.375c0.17,1.667,0.401,3.439,0.521,5.026c0.112,1.759,0.225,3.519,0.33,5.284
	c0.035,1.7,0.07,3.406,0.105,5.109c0.042,1.702-0.056,3.44-0.077,5.157c-0.288,6.886-1.069,13.729-2.52,20.294
	c-1.449,6.569-3.377,12.871-5.629,18.796c-2.217,5.942-4.799,11.498-7.6,16.578c-1.429,2.522-2.892,4.939-4.455,7.178
	c-0.766,1.126-1.498,2.259-2.308,3.3c-0.773,1.063-1.555,2.097-2.371,3.058c-3.208,3.916-6.459,7.262-9.633,9.883
	c-3.153,2.649-6.2,4.588-8.846,5.903c-2.652,1.302-4.904,1.999-6.48,2.322c-0.788,0.204-1.407,0.211-1.822,0.288
	c-0.423,0.057-0.641,0.085-0.641,0.085l-0.07,0.964c0,0,0.225,0.035,0.661,0.105c0.443,0.046,1.105,0.219,1.978,0.254
	c1.738,0.141,4.342,0.015,7.543-0.746c3.202-0.76,6.952-2.23,10.9-4.521c3.934-2.298,8.1-5.377,12.103-9.285
	c1.021-0.964,1.999-1.995,2.991-3.068c1.014-1.045,1.956-2.185,2.935-3.332c1.906-2.333,3.729-4.862,5.516-7.521
	c3.568-5.316,6.594-11.396,9.043-17.912c2.392-6.537,4.103-13.546,5.108-20.73c1.014-7.185,1.492-14.517,1.337-21.824
	c-0.07-1.829-0.063-3.639-0.189-5.478c-0.134-1.837-0.274-3.667-0.408-5.496c-0.197-1.753-0.401-3.508-0.599-5.257
	c-0.246-1.902-0.556-3.598-0.83-5.394c-1.238-7.071-3.089-13.952-5.63-20.341c-2.547-6.382-5.756-12.289-9.576-17.321
	c-3.828-5.033-8.184-9.188-12.574-12.458c-4.385-3.293-8.853-5.624-12.92-7.322c-4.074-1.701-7.789-2.742-10.872-3.363
	c-3.089-0.637-5.552-0.904-7.226-1.026c-1.676-0.12-2.598-0.095-2.598-0.095L205.816,81.75z M138.03,81.197
	c-0.739-0.698-1.654-1.534-2.758-2.418c-1.098-0.892-2.357-1.884-3.807-2.859c-2.857-2.007-6.379-4.105-10.407-5.904
	c-4.018-1.819-8.557-3.307-13.3-4.117c-2.378-0.341-4.788-0.626-7.198-0.543c-2.396,0.003-4.771,0.303-7.023,0.838
	c-0.556,0.144-1.112,0.285-1.661,0.425c-0.541,0.162-1.076,0.364-1.597,0.552c-1.056,0.343-2.034,0.843-2.991,1.295
	c-0.942,0.466-1.801,1.046-2.646,1.555c-0.802,0.582-1.541,1.184-2.259,1.734c-0.668,0.621-1.302,1.21-1.886,1.79
	c-0.556,0.6-1.027,1.222-1.492,1.775c-0.943,1.096-1.527,2.23-2.104,3.068c-0.493,0.899-0.816,1.64-1.059,2.123
	c-0.229,0.493-0.348,0.755-0.348,0.755s0.869-0.802,2.269-2.19c0.785-0.623,1.636-1.458,2.727-2.255
	c0.556-0.388,1.112-0.835,1.739-1.24c0.629-0.389,1.291-0.8,1.984-1.228c0.732-0.357,1.471-0.746,2.245-1.106
	c0.816-0.29,1.604-0.693,2.477-0.952c0.873-0.25,1.731-0.589,2.674-0.752c0.461-0.104,0.926-0.206,1.396-0.312
	c0.479-0.072,0.961-0.145,1.446-0.216c0.964-0.167,1.977-0.187,2.983-0.289c1.021,0.013,2.041-0.074,3.093-0.005
	c2.079,0.04,4.211,0.306,6.333,0.637c2.128,0.346,4.243,0.827,6.326,1.365c2.072,0.57,4.116,1.167,6.076,1.845
	c1.963,0.654,3.849,1.367,5.636,2.059c1.781,0.714,3.483,1.379,5.028,2.057c3.1,1.344,5.675,2.542,7.477,3.415
	c1.805,0.895,2.835,1.407,2.835,1.407S139.511,82.598,138.03,81.197z M148.521,80.221c1.59-0.679,3.856-1.65,6.583-2.817
	c5.422-2.259,12.519-5.395,19.738-7.455c1.802-0.526,3.609-0.932,5.383-1.281c1.78-0.278,3.532-0.561,5.2-0.579
	c1.668-0.039,3.286,0.018,4.75,0.322c1.491,0.244,2.836,0.714,4.06,1.254c1.183,0.604,2.266,1.261,3.146,1.976
	c0.43,0.371,0.852,0.708,1.218,1.05c0.358,0.362,0.683,0.695,0.979,0.996c0.598,0.61,0.992,1.167,1.301,1.52
	c0.31,0.361,0.472,0.553,0.472,0.553s-0.063-0.241-0.19-0.697c-0.154-0.44-0.267-1.159-0.653-1.966
	c-0.184-0.412-0.395-0.869-0.627-1.367c-0.231-0.498-0.598-0.969-0.943-1.52c-0.717-1.07-1.709-2.192-2.989-3.22
	c-0.641-0.5-1.359-0.983-2.118-1.442c-0.789-0.406-1.612-0.846-2.513-1.14c-1.773-0.687-3.736-1.056-5.748-1.223
	c-2.027-0.19-4.089-0.06-6.151,0.18c-2.055,0.266-4.095,0.716-6.086,1.269c-7.962,2.299-14.988,6.433-19.802,10.031
	c-1.221,0.879-2.291,1.754-3.229,2.54c-0.946,0.772-1.728,1.506-2.372,2.101c-1.284,1.207-1.952,1.961-1.952,1.961
	S146.924,80.899,148.521,80.221z M262.842,52.809c-0.653,2.099-1.632,4.136-3.165,5.849c-1.493,1.713-3.702,3.028-5.989,3.292
	c-1.133,0.134-2.237,0.068-3.236-0.151l-0.381-0.07l-0.098-0.018c-0.008,0-0.254-0.062-0.184-0.047l-0.147-0.045l-0.584-0.188
	l-0.584-0.188l-0.689-0.289c-1.815-0.774-3.279-1.83-4.469-3.152c-2.378-2.66-3.124-5.947-2.969-8.655
	c0.154-2.736,1.027-5.119,2.525-6.776c0.747-0.818,1.703-1.432,2.702-1.627c0.999-0.197,1.921,0.02,2.604,0.347
	c1.357,0.691,1.977,1.597,2.441,2.126c0.408,0.574,0.619,0.87,0.619,0.87l-0.556,0.417c0,0-0.239-0.245-0.697-0.718
	c-0.485-0.418-1.217-1.14-2.308-1.478c-0.535-0.146-1.133-0.203-1.71-0.003c-0.577,0.191-1.14,0.644-1.598,1.298
	c-0.937,1.31-1.436,3.36-1.267,5.527c0.169,2.16,1.027,4.505,2.829,6.127c0.865,0.806,2.054,1.458,3.229,1.821l0.43,0.146
	l0.583,0.137l0.599,0.137l0.155,0.033c0.119,0.03-0.077-0.02-0.035-0.014l0.056,0.003l0.232,0.018
	c0.627,0.085,1.225,0.052,1.788-0.066c1.111-0.25,2.083-0.927,2.892-2.011c0.802-1.082,1.415-2.523,1.802-4.109
	c0.753-3.193,0.625-6.944-0.359-10.49c-0.985-3.539-2.948-6.929-5.862-8.97c-1.456-1.015-3.109-1.726-4.932-2.066
	c-0.465-0.095-0.923-0.18-1.33-0.182l-0.641-0.055c-0.112-0.009-0.197-0.028-0.331-0.028l-0.449,0.014l-0.895,0.028l-0.443,0.014
	l-0.226,0.007l0,0c0.126-0.004-0.069,0.007-0.027,0.007l-1.563,0.194c-1.397,0.222-2.768,0.579-4.095,1.054
	c1.285,3.619,1.747,7.507,1.471,11.266c-0.24,3.075-0.922,6.127-2.238,9.04c-0.654,1.457-1.521,2.873-2.583,4.21
	c-1.104,1.321-2.512,2.57-4.334,3.418c-0.465,0.204-0.922,0.418-1.436,0.527l-0.767,0.188l-0.19,0.042
	c-0.183,0.026,0.142,0.003-0.464,0.065l-0.246,0.021l-0.508,0.041l-0.253,0.02c-0.112,0.005-0.31-0.007-0.464-0.012
	c-0.627-0.048-1.365-0.081-1.887-0.269c-0.563-0.164-1.125-0.326-1.646-0.631c-0.262-0.14-0.515-0.287-0.774-0.438
	c-0.232-0.17-0.457-0.354-0.684-0.538c-0.906-0.735-1.555-1.631-2.054-2.508c-0.985-1.783-1.352-3.543-1.521-5.209
	c-0.161-1.671-0.084-3.272,0.155-4.806c0.922-6.142,3.99-11.524,8.262-15.548c1.224-1.147,2.558-2.162,3.956-3.055
	c-2.685-3.709-6.906-6.313-11.683-7.547c-1.288-0.278-2.463-0.596-3.92-0.735l-1.042-0.132l-0.527-0.065l-0.436-0.021l-1.992-0.093
	c-2.659,0.005-5.313,0.333-7.817,1.167c-2.491,0.858-4.792,2.225-6.748,4.007c-0.468,0.432-0.913,0.889-1.339,1.363
	c0.275,0.061,0.551,0.126,0.825,0.213c2.589,0.656,5.207,2.009,7.304,4.036c2.09,2.013,3.659,4.599,4.454,7.325
	c1.569,5.48,1.049,11.213-1.118,16.415c-1.077,2.602-2.639,5.119-5.003,7.165c-1.196,1.001-2.696,1.844-4.412,2.178
	c-0.423,0.097-0.852,0.159-1.295,0.145l-0.654,0.002l-0.169-0.002c-0.007,0.009-0.521-0.06-0.358-0.044l-0.24-0.053l-0.485-0.104
	l-0.239-0.053l-0.359-0.132c-0.464-0.19-1.006-0.399-1.379-0.647c-1.513-0.945-2.421-2.278-3.188-3.566
	c-0.78-1.309-1.218-2.689-1.633-4.06c-0.731-2.765-1.041-5.571-1.041-8.378c0.051-5.065,0.949-10.184,3.029-14.927
	c-0.202,0.003-0.406,0.005-0.608,0.007l-0.408,0.003l-0.163,0.001c-0.004,0-0.001,0-0.006,0l-0.091,0.01l-0.712,0.076
	c-0.479,0.055-0.95,0.077-1.414,0.153c-0.922,0.213-1.857,0.324-2.73,0.642c-1.801,0.472-3.483,1.269-5.102,2.101
	c-1.576,0.925-3.104,1.898-4.475,3.057c-2.76,2.264-5.19,4.774-7.238,7.361c-2.04,2.587-3.8,5.172-5.333,7.633
	c-1.524,2.47-2.801,4.831-3.935,6.977c-2.227,4.315-3.764,7.844-4.771,10.265c-1.027,2.421-1.488,3.74-1.488,3.74l-0.672-0.176
	c0,0,0.239-1.404,0.841-3.991c0.634-2.583,1.646-6.359,3.417-11.029c0.865-2.343,1.949-4.894,3.286-7.615
	c1.333-2.723,2.934-5.614,4.953-8.541c2.017-2.918,4.405-5.946,7.491-8.67c3.046-2.73,6.783-5.264,11.287-6.722
	c1.098-0.412,2.287-0.608,3.462-0.888c0.591-0.109,1.196-0.164,1.801-0.245l0.908-0.111l0.112-0.012
	c-0.077,0,0.239-0.016,0.239-0.014l0.204-0.007l0.415-0.014c0.542-0.02,1.098-0.037,1.646-0.055
	c0.654,0.034,1.316,0.069,1.978,0.102c0.199,0.006,0.389,0.034,0.581,0.055c2.494-3.212,5.77-5.89,9.664-7.387
	c2.745-1.126,5.686-1.717,8.635-1.932l2.209-0.059c0.211,0,0.31-0.018,0.612-0.005l0.528,0.026l1.056,0.058
	c1.351,0.026,2.934,0.281,4.412,0.503c2.934,0.511,5.854,1.478,8.57,2.969c2.654,1.46,5.067,3.483,6.972,5.927
	c2.183-0.825,4.424-1.376,6.644-1.665c0.676-0.065,1.352-0.132,2.021-0.197l0.316-0.02l0.112-0.001h0.218l0.451-0.003l0.894-0.004
	l0.45-0.005l0.548,0.039l1.133,0.102c0.774,0.051,1.472,0.189,2.153,0.348c2.767,0.584,5.433,1.796,7.607,3.52
	c4.398,3.471,6.72,8.339,7.769,12.911C264.278,44.014,264.124,48.596,262.842,52.809z M192.991,58.229l0.026,0.003
	C193.16,58.246,193.074,58.239,192.991,58.229z M191.982,30.794c-0.436-0.156-0.894-0.253-1.371-0.325
	c-0.457-0.081-0.937-0.197-1.372-0.209l-0.13-0.012c-1.059,2.186-1.774,4.528-2.256,6.899c-0.521,2.602-0.718,5.26-0.563,7.873
	c0.141,2.603,0.542,5.193,1.414,7.538c0.845,2.285,2.182,4.542,3.821,5.344c0.184,0.099,0.289,0.079,0.415,0.16
	c0.035,0.018,0.057,0.039,0.099,0.054l0.246,0.03l0.486,0.057l0.146,0.018c-0.02-0.003-0.03-0.005-0.013-0.005l0.077-0.014
	l0.323-0.042c0.219-0.002,0.43-0.065,0.634-0.143c0.83-0.262,1.639-0.786,2.357-1.518c1.428-1.492,2.477-3.551,3.159-5.684
	c0.703-2.134,1.056-4.384,1.063-6.563c0.042-2.176-0.254-4.299-0.9-6.179c-0.662-1.875-1.641-3.492-2.942-4.707
	C195.375,32.143,193.757,31.319,191.982,30.794z M231.403,33.531c-0.695,0.495-1.371,1.023-2.006,1.612
	c-3.125,2.88-5.419,7.008-6.206,11.273c-0.416,2.086-0.247,4.342,0.372,5.536c0.323,0.589,0.542,0.742,0.859,0.871
	c0.105,0.079,0.07-0.007,0.098,0.062c0.015,0.009-0.014,0.032,0.043,0.033l0.253-0.01l0.506-0.023l0.048-0.002l0.045-0.012
	c0.077-0.02,0.147-0.035,0.225-0.047c0.155,0.001,0.31-0.093,0.472-0.153c0.647-0.264,1.379-0.788,2.047-1.538
	c0.655-0.772,1.274-1.675,1.78-2.704c1.021-2.046,1.647-4.433,1.956-6.852c0.296-2.429,0.169-4.924-0.316-7.323
	C231.529,34.011,231.459,33.772,231.403,33.531z M110.907,42.017c-0.032-0.007,0.123,0.02,0.095-0.007c0-0.011,0-0.025,0-0.041
	c0.028-0.007,0.091-0.007,0.148-0.012c0.232-0.016,0.658-0.005,1.231,0.04c1.147,0.092,2.899,0.333,4.985,0.873
	c1.045,0.264,2.171,0.607,3.339,1.04c1.186,0.415,2.372,0.965,3.613,1.571c1.2,0.644,2.463,1.341,3.638,2.197
	c1.2,0.834,2.357,1.789,3.444,2.848c0.535,0.535,1.091,1.071,1.577,1.662c0.521,0.57,0.999,1.177,1.449,1.801
	c0.936,1.237,1.742,2.565,2.459,3.918c0.7,1.354,1.319,2.737,1.798,4.102c0.274,0.677,0.486,1.355,0.668,2.018
	c0.183,0.665,0.419,1.309,0.542,1.942c0.274,1.265,0.57,2.444,0.704,3.506c0.158,1.059,0.324,2,0.373,2.772
	c0.137,1.565,0.218,2.459,0.218,2.459s0.264-0.862,0.728-2.374c0.257-0.758,0.461-1.696,0.722-2.784
	c0.292-1.089,0.471-2.337,0.71-3.723c0.134-0.691,0.162-1.419,0.254-2.18c0.088-0.76,0.154-1.552,0.161-2.372
	c0.081-1.643,0.028-3.398-0.133-5.235c-0.176-1.836-0.473-3.756-0.971-5.689c-0.232-0.973-0.506-1.949-0.852-2.913
	c-0.302-0.983-0.704-1.932-1.098-2.897c-0.819-1.916-1.798-3.788-2.91-5.546c-1.087-1.789-2.347-3.418-3.613-4.979
	c-1.302-1.512-2.632-2.955-3.99-4.202c-1.341-1.269-2.688-2.396-3.976-3.379c-2.576-1.983-4.926-3.411-6.685-4.365
	c-0.879-0.479-1.611-0.835-2.171-1.087c-0.144-0.063-0.271-0.118-0.376-0.167c-0.155-0.058-0.282-0.107-0.387-0.146
	c-0.236-0.083-0.19-0.081-0.218-0.089L110.907,42.017z"/>
</svg>
